<svg id="Capa_1" data-name="Capa 1" xmlns="http://www.w3.org/2000/svg" viewBox="0 0 104.9 100.24"><defs><style>.cls-1{fill:#1a1a1a;}.cls-2{fill:#fff;}</style></defs><title>Logo_Clari</title><circle class="cls-1" cx="52.45" cy="50.15" r="47.43"/><path class="cls-2" d="M33,27.81H46.45L51.2,39.52l-4.11.13L38.61,28.83H34.49c-9,0-17,8.6-17,18.73,0,10.76,8,19,18.16,19A18.81,18.81,0,0,0,53.86,51.8h.25C53.29,63.25,44.43,72.49,33,72.49c-11.84,0-21.2-10-21.2-22.4S21.33,27.81,33,27.81Z"/><path class="cls-2" d="M58.77,69.23,58,55.82h3l6.7,13.92A19.49,19.49,0,0,0,76,71.64c6.14,0,11.9-2.72,11.9-8.48,0-6.39-6.52-8.61-14-10.95C65.79,49.8,59.28,47,59.28,39.05c0-6.9,6.83-11.33,15.88-11.33a65.83,65.83,0,0,1,12.91,1.83l2,12.28-4.31.06L79.53,29.43a20.56,20.56,0,0,0-5.38-.7c-5.32,0-10.44,3.1-10.44,7.91,0,5.76,5.88,7.79,13.29,9.87C84.78,49,92.06,52.08,92.06,60.75c0,7.79-7.66,11.84-16.33,11.84C70.48,72.59,62.88,71.38,58.77,69.23Z"/></svg>